<svg width="557" height="578" viewBox="0 0 557 578" fill="none" xmlns="http://www.w3.org/2000/svg">
<path d="M76.5881 426.387L76.8505 426.703L77.2592 426.744C80.1044 427.025 83.587 427.688 87.0986 428.4C87.7654 428.535 88.4335 428.672 89.0979 428.809C91.906 429.384 94.648 429.947 96.9475 430.302C107.635 432.03 118.166 427.843 127.987 423.874L127.989 423.873C136.553 420.389 145.834 416.486 151.851 408.565C153.777 406.296 154.945 403.417 155.188 400.377L155.19 400.347L155.191 400.316C155.257 396.898 153.668 394.105 151.516 391.814C149.375 389.535 146.603 387.673 144.145 386.103L144.145 386.102C135.602 380.65 127.56 374.336 120.127 367.245L120.12 367.238L120.113 367.231C115.62 363.115 111.59 358.446 108.106 353.319C107.067 351.726 106.109 350.056 105.13 348.35C104.863 347.885 104.595 347.418 104.323 346.948C103.06 344.769 101.73 342.568 100.169 340.529L100.156 340.513L100.143 340.497C94.8806 334.184 88.3712 329.205 81.0846 325.927C65.5951 318.152 48.7645 313.932 31.6673 313.54L31.6666 313.54C23.9916 313.369 15.535 314.199 9.49919 319.814C4.01178 324.909 1.84544 332.902 1.18664 340.348C0.530441 347.626 1.72866 354.657 2.92284 361.664C3.12014 362.822 3.31733 363.979 3.50602 365.136L3.50675 365.141C4.62185 371.795 6.95705 378.148 10.3792 383.829C13.8014 389.511 18.2433 394.41 23.4497 398.237L23.4556 398.242C30.6102 403.421 39.0014 406.457 47.1719 409.414C48.6563 409.952 50.1335 410.486 51.5946 411.031C61.1691 414.597 70.116 418.594 76.5881 426.387Z" fill="#AD6369" stroke="#6A2B01" stroke-width="2"/>
<path d="M161.536 391.934C137.564 374.294 91.1206 365.145 77.4166 385.226C63.7126 405.307 57.4727 423.435 52.4966 456.231C47.5205 489.027 61.2245 487.71 61.8366 504.459C62.4488 521.207 73.0526 519.19 80.5365 517.853C88.0204 516.516 92.9965 503.121 93.6284 490.385C109.194 508.68 125.611 526.115 142.817 542.625C161.991 560.711 184.284 579.497 200.082 577.713C207.546 576.864 215.642 572.534 213.568 564.34C253.812 587.839 272.196 544.748 257.603 539.717C235.546 532.075 201.345 500.383 201.345 500.383C201.345 500.383 214.319 512.058 240.641 517.195C252.982 519.615 262.796 502.336 250.83 499.067C230.471 493.399 214.003 491.574 208.987 467.078C202.627 436.458 185.661 409.591 161.536 391.934Z" fill="#AD6369"/>
<path fill-rule="evenodd" clip-rule="evenodd" d="M160.355 393.548L160.351 393.545C148.672 384.95 131.402 378.365 115.385 376.42C107.387 375.449 99.8096 375.648 93.463 377.26C87.1222 378.871 82.1403 381.852 79.0686 386.353C65.5879 406.107 59.4221 423.919 54.4739 456.531C52.0346 472.608 54.199 480.051 56.8661 485.481C57.4743 486.719 58.1505 487.91 58.8359 489.118C61.1565 493.208 63.583 497.484 63.8353 504.386C63.9813 508.381 64.719 511.053 65.7108 512.831C66.676 514.56 67.9264 515.527 69.3336 516.074C70.7938 516.64 72.5204 516.79 74.4314 516.683C76.3062 516.577 78.2095 516.237 80.0704 515.905L80.1847 515.884C82.8786 515.403 85.6161 512.575 87.8228 507.585C89.9642 502.742 91.3247 496.458 91.6309 490.286L91.881 485.245L95.1517 489.089C110.672 507.331 127.041 524.716 144.196 541.177C153.769 550.205 164.035 559.327 173.837 565.964C183.744 572.673 192.733 576.53 199.857 575.726C203.348 575.329 206.827 574.126 209.133 572.235C211.327 570.435 212.448 568.064 211.629 564.831L210.46 560.209L214.577 562.613C224.349 568.319 232.614 569.882 239.252 569.127C245.889 568.372 251.074 565.282 254.679 561.372C258.311 557.431 260.277 552.725 260.543 548.854C260.81 544.953 259.401 542.452 256.951 541.608L256.948 541.607C245.568 537.664 231.268 527.63 219.968 518.757C214.281 514.292 209.29 510.069 205.721 506.963C203.936 505.409 202.505 504.134 201.519 503.246C201.026 502.801 200.644 502.454 200.385 502.217C200.255 502.098 200.156 502.007 200.089 501.946L200.013 501.875L200.01 501.872L200.009 501.871L199.993 501.857L199.988 501.852L199.987 501.851C199.986 501.85 199.986 501.85 201.345 500.383C201.345 500.383 205.417 504.156 211.657 509.413C223.502 519.39 243.157 534.712 257.603 539.717C271.92 544.653 254.495 586.223 215.828 565.603C215.083 565.205 214.329 564.785 213.568 564.34C213.789 565.214 213.895 566.043 213.898 566.829C213.923 573.418 206.75 576.955 200.082 577.713C184.284 579.497 161.991 560.711 142.817 542.625C126.294 526.771 110.499 510.063 95.4864 492.56C94.8657 491.836 94.2464 491.111 93.6284 490.385C93.5816 491.328 93.5111 492.274 93.4174 493.219C92.2461 505.038 87.4665 516.615 80.5365 517.853L80.3767 517.882C72.9026 519.218 62.4444 521.088 61.8366 504.459C61.6038 498.089 59.4772 494.332 57.2047 490.317C53.5024 483.777 49.4131 476.553 52.4966 456.231C57.4727 423.435 63.7126 405.307 77.4166 385.226C91.1206 365.145 137.564 374.294 161.536 391.934C185.661 409.591 202.627 436.458 208.987 467.078C213.508 489.158 227.335 492.819 244.927 497.477C246.852 497.986 248.822 498.508 250.83 499.067C262.796 502.336 252.982 519.615 240.641 517.195C228.546 514.835 219.27 511.094 212.776 507.74C205.136 503.794 201.345 500.383 201.345 500.383L199.986 501.85L202.621 498.964C202.683 498.896 202.682 498.896 202.682 498.896L202.683 498.896L202.683 498.897L202.703 498.913C202.712 498.922 202.724 498.932 202.739 498.946C202.755 498.959 202.775 498.976 202.797 498.996C202.886 499.071 203.025 499.188 203.214 499.341C203.592 499.648 204.172 500.101 204.954 500.666C206.519 501.795 208.892 503.369 212.079 505.107C218.453 508.58 228.084 512.707 241.024 515.232L241.026 515.232C246.157 516.238 250.927 513.144 253.109 509.281C254.191 507.366 254.479 505.53 254.095 504.157C253.747 502.91 252.743 501.663 250.303 500.996L250.294 500.994C248.359 500.455 246.438 499.947 244.543 499.446C236.682 497.367 229.258 495.405 223.152 491.863C215.327 487.325 209.641 480.237 207.029 467.484C207.029 467.482 207.028 467.481 207.028 467.479L208.987 467.078L207.029 467.484C207.029 467.484 207.029 467.484 207.029 467.484C200.764 437.325 184.06 410.898 160.355 393.548Z" fill="#6A2B01"/>
<path d="M554.907 335.75L554.907 335.752C555.539 342.75 554.391 349.496 553.197 356.516C552.999 357.681 552.799 358.854 552.607 360.036C551.532 366.447 549.283 372.561 545.994 378.023C542.704 383.484 538.441 388.183 533.454 391.849C526.549 396.847 518.465 399.775 510.291 402.737C508.792 403.28 507.291 403.824 505.793 404.381C496.317 407.912 487.037 411.996 480.223 420.021C477.345 420.333 473.934 420.987 470.59 421.665C469.91 421.803 469.232 421.942 468.562 422.079C465.756 422.655 463.076 423.204 460.829 423.551L460.823 423.553C450.778 425.177 440.774 421.256 430.85 417.245C422.204 413.727 413.446 409.992 407.812 402.56L407.795 402.537L407.776 402.515C406.128 400.581 405.111 398.107 404.895 395.473C404.852 392.77 406.094 390.467 408.028 388.409C409.98 386.331 412.559 384.584 415.017 383.013C423.668 377.492 431.809 371.1 439.332 363.924C443.94 359.701 448.07 354.913 451.64 349.661L451.645 349.653L451.65 349.645C452.725 347.996 453.722 346.26 454.707 344.544C454.97 344.086 455.232 343.629 455.494 343.176C456.746 341.015 458.019 338.913 459.493 336.987C464.569 330.901 470.838 326.114 477.841 322.967L477.861 322.959L477.88 322.949C493.113 315.299 509.66 311.15 526.464 310.764C534.073 310.595 541.808 311.464 547.225 316.504L547.226 316.505C552.164 321.089 554.263 328.464 554.907 335.75Z" fill="#AD6369" stroke="#6A2B01" stroke-width="2"/>
<path d="M463.4 485.281C447.857 503.549 431.464 520.959 414.283 537.444C404.728 546.457 393.707 555.57 383.143 562.789C372.545 570.03 362.521 575.287 354.937 576.711L354.937 576.711C353.762 576.932 351.931 576.98 349.884 576.805C347.847 576.631 345.672 576.243 343.819 575.632C341.924 575.008 340.536 574.206 339.872 573.318C339.561 572.902 339.42 572.484 339.435 572.039C339.449 571.581 339.631 570.995 340.143 570.265L340.143 570.265C346.907 560.616 362.145 544.593 375.757 530.927C382.55 524.107 388.917 517.895 393.587 513.387C395.922 511.133 397.832 509.305 399.158 508.042C399.821 507.41 400.338 506.919 400.689 506.586C400.864 506.419 400.998 506.293 401.088 506.207L401.19 506.111L401.216 506.087L401.222 506.081L401.224 506.079C401.224 506.079 401.224 506.079 401.155 506.005L401.224 506.079L399.979 504.522L400.538 505.351C399.979 504.522 399.979 504.523 399.978 504.523L399.976 504.525L399.965 504.532L399.922 504.561L399.75 504.676C399.67 504.73 399.569 504.798 399.448 504.878C399.34 504.951 399.216 505.034 399.077 505.127C398.485 505.521 397.615 506.1 396.499 506.835C394.269 508.305 391.06 510.401 387.149 512.901C379.326 517.903 368.696 524.522 357.466 530.995C346.23 537.471 334.416 543.789 324.217 548.198C319.116 550.402 314.445 552.119 310.467 553.141C306.457 554.172 303.283 554.461 301.11 553.944C298.003 553.19 296 552.338 294.644 551.459C293.308 550.594 292.564 549.68 292.005 548.731C291.74 548.281 291.504 547.78 291.253 547.248C290.482 545.612 289.571 543.681 287.258 542.044C284.517 540.103 281.62 536.832 281.482 533.027C281.347 529.33 283.82 524.581 293.076 519.627C293.868 519.204 294.682 518.77 295.515 518.327C304.523 513.531 315.794 507.531 325.815 499.316C336.776 490.33 346.318 478.635 349.818 462.859L349.82 462.853C356.329 432.557 373.104 405.974 396.849 388.281C405.879 381.636 418.185 376.187 430.715 373.108C440.856 370.617 451.08 369.693 459.779 370.905C468.487 372.119 475.532 375.449 479.547 381.333C485.841 390.556 490.54 399.347 494.265 409.349C498.604 420.997 501.633 434.318 504.305 451.924C506.768 468.162 504.595 475.818 501.821 481.465C501.173 482.784 500.471 484.024 499.77 485.26C497.472 489.316 495.196 493.331 494.954 499.966C494.804 504.057 494.047 506.9 492.952 508.861C491.871 510.799 490.437 511.92 488.818 512.549C487.172 513.188 485.286 513.336 483.302 513.225C481.366 513.116 479.411 512.766 477.567 512.437L477.429 512.412C474.211 511.837 471.285 508.582 469.052 503.533C466.852 498.557 465.471 492.149 465.16 485.879L465.035 483.359L463.4 485.281Z" fill="#AD6369" stroke="#6A2B01" stroke-width="2"/>
<path d="M124.976 91L119.476 94.5L105.976 105L102.476 108L100.476 110L101.476 110.5L102.976 110L105.476 109L113.476 109.5L115.476 110.5H118.976L120.476 111.5L123.476 113.5L127.476 115.5L129.476 116.5L130.976 118L132.476 121V126.5L133.476 128.5V143L132.476 145.5V150.5L131.476 152V155.5L130.476 156.5L127.476 159L125.976 159.5V161L127.476 162L131.476 163V165L130.476 166V167L131.476 168L133.476 169.5L136.976 172.5L140.976 177.5L143.976 180L145.476 181H148.976L149.976 180L152.976 179.5L154.476 178.5L155.476 179.5L158.476 181.5V187.5L157.476 191.5L152.476 192.5L150.476 194L148.476 198L147.476 202.5L145.476 205L143.976 206.5V209L145.476 209.5L148.976 211.5L150.476 215.5L154.476 219.5L156.976 220L157.976 221V223L156.976 223.5L154.476 225.5V226.5L155.476 228L158.476 231L160.476 234L162.476 237.5L165.476 238L170.476 240.5L173.476 241.5L176.476 240.5L177.476 241.5L176.476 243L175.976 245.5L172.476 248L169.976 250L167.476 251L164.476 254V257.5L162.476 258.5L161.476 261L159.976 263.5L158.476 266.5L157.476 268V270L158.476 271L161.476 272.5L165.476 274L167.476 274.5L168.976 275V277L167.976 277.5L166.476 279L164.476 280V281.5L165.476 282L167.476 282.5L168.976 283.5V285L167.476 286L163.476 290L162.476 291.5V293L163.476 294.5L166.476 298L167.476 299.5V302L166.476 304L165.476 305V306L166.476 307L167.476 309L168.976 310V311.5L167.976 312.5L166.976 314.5V316.5L167.476 318.5L168.976 319.5V321L167.476 322.5L165.476 326L164.476 328.5V334.5L165.476 337L166.476 339.5L167.976 342L172.976 348.5V357.5L172.476 359.5V368.5L175.976 368L181.476 365.5L185.976 362.5L191.976 358.5L196.976 356L200.976 353.5L203.976 350.5L207.476 348.5C207.476 348.5 209.494 346.789 210.976 346C212.449 345.216 214.976 344.5 214.976 344.5H220.476L221.976 345.5L225.976 346L227.476 346.5L228.976 348.5L227.476 351.5V354.5L228.976 356L233.476 357.5L235.476 358.5H236.476L237.476 357.5L240.976 356L243.476 355L244.976 354H246.476L248.476 355L250.976 356L255.476 360L258.976 362.5L264.476 365.5L270.476 367.5L275.976 368.5L283.476 369.5L291.476 377L292.476 379.5L293.476 382.5L294.976 384.5L295.476 385.5H296.476L297.476 384.5H298.976L301.976 383L303.976 382H305.476L306.976 383L309.476 383.5L312.976 384.5L316.476 385.5L319.476 386.5L321.976 387.5L325.476 389.5L327.976 391.5L330.476 394.5L331.476 396V397L329.976 399.5L321.976 408L320.476 411V414.5H315.976L314.976 415L314.476 416.5L313.476 421L312.976 425.5L311.976 427L313.476 428.5L316.976 433L321.476 437V442L325.476 446L331.476 449L333.976 450L335.476 449L336.976 446L340.476 442L343.976 438.5L349.976 432.5L348.476 428.5L347.976 421L350.976 410L351.976 402.5L352.976 399.5L355.976 390V381L354.476 373L353.476 366L352.976 360.5V356.5L353.476 353.5L354.976 347.5L355.476 343.5L356.476 341.5V338L354.976 336V329L356.476 328L357.476 327V324L355.976 320L357.976 315.5V312.5H359.976L361.476 310L359.976 308L358.476 306.5L356.976 305V302.5L358.476 301.5H363.476L366.476 303V305L366.976 307.5L371.976 308L374.976 306.5L385.476 293L391.476 283.5L401.476 266L405.976 259L419.476 245.5L421.476 244.5H423.476L424.976 242.5L425.476 240.5L426.976 237.5L428.476 236.5H429.976L431.476 235L432.476 233.5V232L444.976 216L452.476 198L454.976 193L460.476 182V173.5L461.476 172V170L462.976 168.5V167L462.476 166L461.476 163.5V155.5L458.976 149V140L457.476 138.5L455.976 137.5L455.476 135.5L454.476 127L450.976 123.5L450.476 114L447.476 109.5L444.976 107L442.476 105.5H438.976L437.976 104.5H431.476H426.476L424.476 104L422.976 103.5H421.476L420.476 104L415.976 105.5L413.476 104.5L410.976 103L405.476 101.5L401.976 99L398.476 95.5L396.476 94L392.476 92.5L381.976 83.5L370.976 71.5L365.476 69.5L355.476 61L351.976 59.5L326.476 46.5L323.976 48L322.976 46.5H312.976L307.476 50L305.976 48H296.476L294.476 51L292.476 49.5L280.476 45.5L278.976 42.5L272.976 41.5L271.476 44L265.976 43L258.476 40L245.476 33.5H241.976L237.976 36L231.476 32.5L230.476 38.5H221.976L219.476 43L215.476 45L207.976 52L206.976 50V45L214.476 31.5L212.976 28.5L208.976 19L204.976 14H201.976L198.976 7.5L191.476 9.5L184.976 7.5L179.476 3.5L169.476 2L165.976 15L162.976 17.5L164.476 20.5V25L158.976 32.5V37.5L154.976 41.5V48.5L151.476 55.5L144.476 64L143.476 66.5L142.476 70.5L130.976 87.5L128.476 90L124.976 91Z" fill="url(#paint0_linear)" stroke="#6A2B01" stroke-width="2"/>
<defs>
<linearGradient id="paint0_linear" x1="281.726" y1="2" x2="281.726" y2="450" gradientUnits="userSpaceOnUse">
<stop stop-color="#C85530"/>
<stop offset="1" stop-color="#D97E21"/>
</linearGradient>
</defs>
</svg>
