<svg width="557" height="677" viewBox="0 0 557 677" fill="none" xmlns="http://www.w3.org/2000/svg">
<path d="M77.1116 426.387L77.374 426.703L77.7827 426.744C80.6279 427.025 84.1106 427.688 87.6221 428.4C88.289 428.535 88.9571 428.672 89.6215 428.809C92.4296 429.384 95.1716 429.947 97.4711 430.302C108.159 432.03 118.69 427.843 128.51 423.874L128.512 423.873C137.077 420.389 146.358 416.486 152.374 408.565C154.3 406.296 155.469 403.417 155.711 400.377L155.714 400.347L155.714 400.316C155.78 396.898 154.191 394.105 152.039 391.814C149.899 389.535 147.127 387.673 144.669 386.103L144.668 386.102C136.125 380.65 128.083 374.336 120.651 367.245L120.644 367.238L120.636 367.231C116.144 363.115 112.114 358.446 108.629 353.319C107.591 351.726 106.632 350.056 105.653 348.35C105.386 347.885 105.118 347.418 104.846 346.948C103.584 344.769 102.254 342.568 100.692 340.529L100.68 340.513L100.666 340.497C95.4041 334.184 88.8947 329.205 81.6081 325.927C66.1187 318.152 49.2881 313.932 32.1909 313.54L32.1901 313.54C24.5152 313.369 16.0585 314.199 10.0228 319.814C4.53534 324.909 2.369 332.902 1.7102 340.348C1.054 347.626 2.25222 354.657 3.4464 361.664C3.6437 362.822 3.84089 363.979 4.02958 365.136L4.03031 365.141C5.14541 371.795 7.48061 378.148 10.9028 383.829C14.325 389.511 18.7668 394.41 23.9732 398.237L23.9792 398.242C31.1337 403.421 39.525 406.457 47.6954 409.414C49.1799 409.952 50.6571 410.486 52.1182 411.031C61.6927 414.597 70.6396 418.594 77.1116 426.387Z" fill="#AD6369" stroke="#6A2B01" stroke-width="2"/>
<path d="M162.06 391.934C138.088 374.294 91.6442 365.145 77.9401 385.226C64.2361 405.307 57.9962 423.435 53.0201 456.231C48.044 489.027 61.7481 487.71 62.3602 504.459C62.9723 521.207 73.5762 519.19 81.0601 517.853C88.544 516.516 93.5201 503.121 94.152 490.385C109.717 508.68 126.135 526.115 143.34 542.625C162.514 560.711 184.808 579.497 200.605 577.713C208.069 576.864 216.165 572.534 214.092 564.34C254.335 587.839 272.719 544.748 258.127 539.717C236.07 532.075 201.869 500.383 201.869 500.383C201.869 500.383 214.842 512.058 241.164 517.195C253.506 519.615 263.32 502.336 251.354 499.067C230.995 493.399 214.526 491.574 209.511 467.078C203.15 436.458 186.184 409.591 162.06 391.934Z" fill="#AD6369"/>
<path fill-rule="evenodd" clip-rule="evenodd" d="M160.879 393.548L160.875 393.545C149.195 384.95 131.925 378.365 115.908 376.42C107.91 375.449 100.333 375.648 93.9865 377.26C87.6458 378.871 82.6638 381.852 79.5921 386.353C66.1115 406.107 59.9457 423.919 54.9975 456.531C52.5581 472.608 54.7225 480.051 57.3897 485.481C57.9979 486.719 58.674 487.91 59.3594 489.118C61.6801 493.208 64.1066 497.484 64.3589 504.386C64.5049 508.381 65.2426 511.053 66.2344 512.831C67.1996 514.56 68.45 515.527 69.8571 516.074C71.3173 516.64 73.044 516.79 74.9549 516.683C76.8298 516.577 78.7331 516.237 80.5939 515.905L80.7083 515.884C83.4022 515.403 86.1397 512.575 88.3464 507.585C90.4877 502.742 91.8482 496.458 92.1544 490.286L92.4045 485.245L95.6752 489.089C111.196 507.331 127.565 524.716 144.72 541.177C154.292 550.205 164.559 559.327 174.36 565.964C184.268 572.673 193.257 576.53 200.381 575.726C203.872 575.329 207.351 574.126 209.657 572.235C211.85 570.435 212.971 568.064 212.153 564.831L210.984 560.209L215.1 562.613C224.872 568.319 233.137 569.882 239.776 569.127C246.413 568.372 251.598 565.282 255.202 561.372C258.835 557.431 260.801 552.725 261.066 548.854C261.334 544.953 259.925 542.452 257.475 541.608L257.472 541.607C246.091 537.664 231.791 527.63 220.491 518.757C214.804 514.292 209.813 510.069 206.244 506.963C204.459 505.409 203.029 504.134 202.043 503.246C201.55 502.801 201.168 502.454 200.909 502.217C200.779 502.098 200.68 502.007 200.613 501.946L200.537 501.875L200.534 501.872L200.532 501.871L200.517 501.857L200.512 501.852L200.51 501.851C200.51 501.85 200.509 501.85 201.869 500.383C201.869 500.383 205.941 504.156 212.181 509.413C224.025 519.39 243.68 534.712 258.127 539.717C272.443 544.653 255.019 586.223 216.352 565.603C215.606 565.205 214.853 564.785 214.092 564.34C214.313 565.214 214.418 566.043 214.421 566.829C214.446 573.418 207.274 576.955 200.605 577.713C184.808 579.497 162.514 560.711 143.34 542.625C126.818 526.771 111.022 510.063 96.0099 492.56C95.3893 491.836 94.77 491.111 94.152 490.385C94.1052 491.328 94.0346 492.274 93.941 493.219C92.7697 505.038 87.99 516.615 81.0601 517.853L80.9002 517.882C73.4261 519.218 62.968 521.088 62.3602 504.459C62.1274 498.089 60.0007 494.332 57.7283 490.317C54.0259 483.777 49.9366 476.553 53.0201 456.231C57.9962 423.435 64.2361 405.307 77.9401 385.226C91.6442 365.145 138.088 374.294 162.06 391.934C186.184 409.591 203.15 436.458 209.511 467.078C214.032 489.158 227.858 492.819 245.451 497.477C247.376 497.986 249.346 498.508 251.354 499.067C263.32 502.336 253.506 519.615 241.164 517.195C229.07 514.835 219.794 511.094 213.299 507.74C205.659 503.794 201.869 500.383 201.869 500.383L200.509 501.85L203.145 498.964C203.206 498.896 203.206 498.896 203.206 498.896L203.207 498.896L203.207 498.897L203.226 498.913C203.235 498.922 203.248 498.932 203.263 498.946C203.279 498.959 203.298 498.976 203.321 498.996C203.409 499.071 203.548 499.188 203.737 499.341C204.116 499.648 204.696 500.101 205.478 500.666C207.042 501.795 209.416 503.369 212.603 505.107C218.976 508.58 228.608 512.707 241.547 515.232L241.549 515.232C246.68 516.238 251.45 513.144 253.633 509.281C254.715 507.366 255.002 505.53 254.619 504.157C254.271 502.91 253.266 501.663 250.826 500.996L250.817 500.994C248.883 500.455 246.962 499.947 245.066 499.446C237.206 497.367 229.782 495.405 223.675 491.863C215.85 487.325 210.165 480.237 207.553 467.484C207.552 467.482 207.552 467.481 207.551 467.479L209.51 467.078L207.553 467.484C207.553 467.484 207.553 467.484 207.553 467.484C201.288 437.325 184.584 410.898 160.879 393.548Z" fill="#6A2B01"/>
<path d="M555.431 335.75L555.431 335.752C556.062 342.75 554.915 349.496 553.721 356.516C553.523 357.681 553.323 358.854 553.13 360.036C552.056 366.447 549.807 372.561 546.517 378.023C543.228 383.484 538.964 388.183 533.978 391.849C527.072 396.847 518.989 399.775 510.814 402.737C509.316 403.28 507.815 403.824 506.317 404.381C496.84 407.912 487.56 411.996 480.747 420.021C477.869 420.333 474.458 420.987 471.114 421.665C470.433 421.803 469.756 421.942 469.086 422.079C466.28 422.655 463.6 423.204 461.353 423.551L461.346 423.553C451.302 425.177 441.298 421.256 431.373 417.245C422.727 413.727 413.97 409.992 408.336 402.56L408.318 402.537L408.3 402.515C406.651 400.581 405.634 398.107 405.418 395.473C405.375 392.77 406.618 390.467 408.551 388.409C410.503 386.331 413.082 384.584 415.541 383.013C424.191 377.492 432.333 371.1 439.855 363.924C444.463 359.701 448.594 354.913 452.163 349.661L452.169 349.653L452.174 349.645C453.249 347.996 454.246 346.26 455.23 344.544C455.493 344.086 455.755 343.629 456.018 343.176C457.269 341.015 458.542 338.913 460.016 336.987C465.093 330.901 471.362 326.114 478.364 322.967L478.384 322.959L478.403 322.949C493.637 315.299 510.184 311.15 526.988 310.764C534.596 310.595 542.331 311.464 547.749 316.504L547.749 316.505C552.688 321.089 554.786 328.464 555.431 335.75Z" fill="#AD6369" stroke="#6A2B01" stroke-width="2"/>
<path d="M463.923 485.281C448.38 503.549 431.987 520.959 414.807 537.444C405.251 546.457 394.23 555.57 383.666 562.789C373.069 570.03 363.044 575.287 355.46 576.711L355.46 576.711C354.286 576.932 352.454 576.98 350.407 576.805C348.371 576.631 346.196 576.243 344.342 575.632C342.447 575.008 341.06 574.206 340.396 573.318C340.084 572.902 339.944 572.484 339.958 572.039C339.973 571.581 340.155 570.995 340.667 570.265L340.667 570.265C347.43 560.616 362.668 544.593 376.28 530.927C383.073 524.107 389.441 517.895 394.111 513.387C396.445 511.133 398.355 509.305 399.681 508.042C400.344 507.41 400.861 506.919 401.212 506.586C401.388 506.419 401.522 506.293 401.612 506.207L401.714 506.111L401.74 506.087L401.746 506.081L401.748 506.079C401.748 506.079 401.748 506.079 401.678 506.005L401.748 506.079L400.503 504.522L401.062 505.351C400.503 504.522 400.502 504.523 400.502 504.523L400.499 504.525L400.488 504.532L400.445 504.561L400.274 504.676C400.194 504.73 400.093 504.798 399.972 504.878C399.864 504.951 399.74 505.034 399.6 505.127C399.009 505.521 398.138 506.1 397.023 506.835C394.793 508.305 391.584 510.401 387.673 512.901C379.849 517.903 369.22 524.522 357.989 530.995C346.754 537.471 334.939 543.789 324.741 548.198C319.64 550.402 314.969 552.119 310.991 553.141C306.981 554.172 303.806 554.461 301.633 553.944C298.526 553.19 296.524 552.338 295.167 551.459C293.831 550.594 293.087 549.68 292.528 548.731C292.263 548.281 292.027 547.78 291.776 547.248C291.005 545.612 290.095 543.681 287.782 542.044C285.04 540.103 282.144 536.832 282.005 533.027C281.871 529.33 284.344 524.581 293.6 519.627C294.391 519.204 295.205 518.77 296.039 518.327C305.047 513.531 316.318 507.531 326.338 499.316C337.3 490.33 346.841 478.635 350.342 462.859L350.343 462.853C356.853 432.557 373.627 405.974 397.372 388.281C406.403 381.636 418.708 376.187 431.239 373.108C441.38 370.617 451.604 369.693 460.302 370.905C469.01 372.119 476.055 375.449 480.071 381.333C486.365 390.556 491.064 399.347 494.789 409.349C499.127 420.997 502.157 434.318 504.828 451.924C507.292 468.162 505.119 475.818 502.345 481.465C501.697 482.784 500.994 484.024 500.294 485.26C497.995 489.316 495.72 493.331 495.477 499.966C495.328 504.057 494.57 506.9 493.476 508.861C492.395 510.799 490.961 511.92 489.342 512.549C487.696 513.188 485.809 513.336 483.826 513.225C481.89 513.116 479.935 512.766 478.091 512.437L477.953 512.412C474.735 511.837 471.809 508.582 469.576 503.533C467.376 498.557 465.995 492.149 465.684 485.879L465.559 483.359L463.923 485.281Z" fill="#AD6369" stroke="#6A2B01" stroke-width="2"/>
<path d="M125.5 91L120 94.5L106.5 105L103 108L101 110L102 110.5L103.5 110L106 109L114 109.5L116 110.5H119.5L121 111.5L124 113.5L128 115.5L130 116.5L131.5 118L133 121V126.5L134 128.5V143L133 145.5V150.5L132 152V155.5L131 156.5L128 159L126.5 159.5V161L128 162L132 163V165L131 166V167L132 168L134 169.5L137.5 172.5L141.5 177.5L144.5 180L146 181H149.5L150.5 180L153.5 179.5L155 178.5L156 179.5L159 181.5V187.5L158 191.5L153 192.5L151 194L149 198L148 202.5L146 205L144.5 206.5V209L146 209.5L149.5 211.5L151 215.5L155 219.5L157.5 220L158.5 221V223L157.5 223.5L155 225.5V226.5L156 228L159 231L161 234L163 237.5L166 238L171 240.5L174 241.5L177 240.5L178 241.5L177 243L176.5 245.5L173 248L170.5 250L168 251L165 254V257.5L163 258.5L162 261L160.5 263.5L159 266.5L158 268V270L159 271L162 272.5L166 274L168 274.5L169.5 275V277L168.5 277.5L167 279L165 280V281.5L166 282L168 282.5L169.5 283.5V285L168 286L164 290L163 291.5V293L164 294.5L167 298L168 299.5V302L167 304L166 305V306L167 307L168 309L169.5 310V311.5L168.5 312.5L167.5 314.5V316.5L168 318.5L169.5 319.5V321L168 322.5L166 326L165 328.5V334.5L166 337L167 339.5L168.5 342L173.5 348.5V357.5L173 359.5V368.5L176.5 368L182 365.5L186.5 362.5L192.5 358.5L197.5 356L201.5 353.5L204.5 350.5L208 348.5C208 348.5 210.017 346.789 211.5 346C212.973 345.216 215.5 344.5 215.5 344.5H221L222.5 345.5L226.5 346L228 346.5L229.5 348.5L228 351.5V354.5L229.5 356L234 357.5L236 358.5H237L238 357.5L241.5 356L244 355L245.5 354H247L249 355L251.5 356L256 360L259.5 362.5L265 365.5L271 367.5L276.5 368.5L284 369.5L292 377L293 379.5L294 382.5L295.5 384.5L296 385.5H297L298 384.5H299.5L302.5 383L304.5 382H306L307.5 383L310 383.5L313.5 384.5L317 385.5L320 386.5L322.5 387.5L326 389.5L328.5 391.5L331 394.5L332 396V397L330.5 399.5L322.5 408L321 411V414.5H316.5L315.5 415L315 416.5L314 421L313.5 425.5L312.5 427L314 428.5L317.5 433L322 437V442L326 446L332 449L334.5 450L336 449L337.5 446L341 442L344.5 438.5L350.5 432.5L349 428.5L348.5 421L351.5 410L352.5 402.5L353.5 399.5L356.5 390V381L355 373L354 366L353.5 360.5V356.5L354 353.5L355.5 347.5L356 343.5L357 341.5V338L355.5 336V329L357 328L358 327V324L356.5 320L358.5 315.5V312.5H360.5L362 310L360.5 308L359 306.5L357.5 305V302.5L359 301.5H364L367 303V305L367.5 307.5L372.5 308L375.5 306.5L386 293L392 283.5L402 266L406.5 259L420 245.5L422 244.5H424L425.5 242.5L426 240.5L427.5 237.5L429 236.5H430.5L432 235L433 233.5V232L445.5 216L453 198L455.5 193L461 182V173.5L462 172V170L463.5 168.5V167L463 166L462 163.5V155.5L459.5 149V140L458 138.5L456.5 137.5L456 135.5L455 127L451.5 123.5L451 114L448 109.5L445.5 107L443 105.5H439.5L438.5 104.5H432H427L425 104L423.5 103.5H422L421 104L416.5 105.5L414 104.5L411.5 103L406 101.5L402.5 99L399 95.5L397 94L393 92.5L382.5 83.5L371.5 71.5L366 69.5L356 61L352.5 59.5L327 46.5L324.5 48L323.5 46.5H313.5L308 50L306.5 48H297L295 51L293 49.5L281 45.5L279.5 42.5L273.5 41.5L272 44L266.5 43L259 40L246 33.5H242.5L238.5 36L232 32.5L231 38.5H222.5L220 43L216 45L208.5 52L207.5 50V45L215 31.5L213.5 28.5L209.5 19L205.5 14H202.5L199.5 7.5L192 9.5L185.5 7.5L180 3.5L170 2L166.5 15L163.5 17.5L165 20.5V25L159.5 32.5V37.5L155.5 41.5V48.5L152 55.5L145 64L144 66.5L143 70.5L131.5 87.5L129 90L125.5 91Z" fill="url(#paint0_linear)" stroke="#6A2B01" stroke-width="2"/>
<path d="M75.1458 676H70.9698V655.36C70.9698 654.048 71.0018 652.816 71.0658 651.664C70.7458 652.56 70.2498 653.824 69.5778 655.456L60.3618 676.576L51.4338 655.36C50.6658 653.504 50.1858 652.288 49.9938 651.712C50.0898 652.576 50.1378 653.792 50.1378 655.36V676H45.9618V642.4H49.8978L59.6418 665.008L60.5058 667.264C60.6338 666.88 60.9218 666.128 61.3698 665.008L71.1618 642.4H75.1458V676ZM101.101 673.168C99.1491 675.44 96.5091 676.576 93.1811 676.576C89.8531 676.576 87.2131 675.44 85.2611 673.168C83.3091 670.896 82.3331 667.76 82.3331 663.76C82.3331 659.76 83.3091 656.624 85.2611 654.352C87.2131 652.048 89.8531 650.896 93.1811 650.896C96.5091 650.896 99.1491 652.032 101.101 654.304C103.053 656.576 104.029 659.712 104.029 663.712C104.029 667.712 103.053 670.864 101.101 673.168ZM88.2851 670.336C89.4691 671.904 91.1011 672.688 93.1811 672.688C95.2611 672.688 96.8771 671.904 98.0291 670.336C99.2131 668.736 99.8051 666.528 99.8051 663.712C99.8051 660.928 99.2131 658.736 98.0291 657.136C96.8771 655.536 95.2611 654.736 93.1811 654.736C91.1011 654.736 89.4691 655.536 88.2851 657.136C87.1331 658.704 86.5571 660.912 86.5571 663.76C86.5571 666.544 87.1331 668.736 88.2851 670.336ZM125.659 676V661.168C125.659 658.96 125.179 657.344 124.219 656.32C123.291 655.264 122.011 654.736 120.379 654.736C116.603 654.736 114.715 656.848 114.715 661.072V676H110.539V651.472H114.715V653.968C116.219 651.92 118.331 650.896 121.051 650.896C123.931 650.896 126.107 651.776 127.579 653.536C129.083 655.264 129.835 658.048 129.835 661.888V676H125.659ZM141.57 646.288C141.058 646.768 140.434 647.008 139.698 647.008C138.962 647.008 138.338 646.752 137.826 646.24C137.346 645.728 137.106 645.12 137.106 644.416C137.106 643.68 137.362 643.056 137.874 642.544C138.386 642 138.994 641.728 139.698 641.728C140.434 641.728 141.058 642 141.57 642.544C142.082 643.056 142.338 643.68 142.338 644.416C142.338 645.152 142.082 645.776 141.57 646.288ZM137.634 676V651.472H141.81V676H137.634ZM156.397 676.576C152.941 676.576 151.213 674.624 151.213 670.72V655.12H147.229V651.472H151.213V643.36L155.389 641.344V651.472H161.437V655.12H155.389V669.328C155.389 670.416 155.565 671.248 155.917 671.824C156.269 672.4 156.941 672.688 157.933 672.688C159.021 672.688 160.237 672.256 161.581 671.392L161.101 675.472C159.693 676.208 158.125 676.576 156.397 676.576ZM184.585 673.168C182.633 675.44 179.993 676.576 176.665 676.576C173.337 676.576 170.697 675.44 168.745 673.168C166.793 670.896 165.817 667.76 165.817 663.76C165.817 659.76 166.793 656.624 168.745 654.352C170.697 652.048 173.337 650.896 176.665 650.896C179.993 650.896 182.633 652.032 184.585 654.304C186.537 656.576 187.513 659.712 187.513 663.712C187.513 667.712 186.537 670.864 184.585 673.168ZM171.769 670.336C172.953 671.904 174.585 672.688 176.665 672.688C178.745 672.688 180.361 671.904 181.513 670.336C182.697 668.736 183.289 666.528 183.289 663.712C183.289 660.928 182.697 658.736 181.513 657.136C180.361 655.536 178.745 654.736 176.665 654.736C174.585 654.736 172.953 655.536 171.769 657.136C170.617 658.704 170.041 660.912 170.041 663.76C170.041 666.544 170.617 668.736 171.769 670.336ZM194.023 676V651.472H198.199V654.688C199.351 652.16 201.287 650.896 204.007 650.896C205.543 650.896 206.807 651.312 207.799 652.144L207.175 656.08C206.151 655.376 204.983 655.024 203.671 655.024C202.231 655.024 200.951 655.584 199.831 656.704C198.743 657.824 198.199 659.648 198.199 662.176V676H194.023ZM234.488 676.576C231.64 676.576 229.16 675.888 227.048 674.512C224.968 673.104 223.544 671.296 222.776 669.088L226.712 667.648C227.416 669.184 228.456 670.4 229.832 671.296C231.208 672.192 232.792 672.64 234.584 672.64C236.632 672.64 238.248 672.16 239.432 671.2C240.616 670.208 241.208 668.8 241.208 666.976C241.208 665.216 240.536 663.808 239.192 662.752C237.88 661.696 236.024 660.736 233.624 659.872C232.472 659.456 231.512 659.088 230.744 658.768C230.008 658.448 229.144 658 228.152 657.424C227.192 656.816 226.424 656.208 225.848 655.6C225.272 654.96 224.776 654.176 224.36 653.248C223.976 652.288 223.784 651.248 223.784 650.128C223.784 647.792 224.712 645.824 226.568 644.224C228.424 642.624 230.936 641.824 234.104 641.824C236.696 641.824 238.856 642.384 240.584 643.504C242.312 644.592 243.432 646.032 243.944 647.824L240.104 649.12C239.656 648.128 238.888 647.312 237.8 646.672C236.712 646.032 235.384 645.712 233.816 645.712C232.056 645.712 230.664 646.112 229.64 646.912C228.616 647.68 228.104 648.752 228.104 650.128C228.104 650.864 228.28 651.536 228.632 652.144C229.016 652.752 229.592 653.296 230.36 653.776C231.16 654.256 231.896 654.64 232.568 654.928C233.24 655.216 234.168 655.584 235.352 656.032C236.824 656.576 238.04 657.104 239 657.616C239.96 658.096 241 658.752 242.12 659.584C243.24 660.416 244.088 661.456 244.664 662.704C245.24 663.92 245.528 665.312 245.528 666.88C245.528 669.888 244.504 672.256 242.456 673.984C240.408 675.712 237.752 676.576 234.488 676.576ZM270.039 673.168C268.087 675.44 265.447 676.576 262.119 676.576C258.791 676.576 256.151 675.44 254.199 673.168C252.247 670.896 251.271 667.76 251.271 663.76C251.271 659.76 252.247 656.624 254.199 654.352C256.151 652.048 258.791 650.896 262.119 650.896C265.447 650.896 268.087 652.032 270.039 654.304C271.991 656.576 272.967 659.712 272.967 663.712C272.967 667.712 271.991 670.864 270.039 673.168ZM257.223 670.336C258.407 671.904 260.039 672.688 262.119 672.688C264.199 672.688 265.815 671.904 266.967 670.336C268.151 668.736 268.743 666.528 268.743 663.712C268.743 660.928 268.151 658.736 266.967 657.136C265.815 655.536 264.199 654.736 262.119 654.736C260.039 654.736 258.407 655.536 257.223 657.136C256.071 658.704 255.495 660.912 255.495 663.76C255.495 666.544 256.071 668.736 257.223 670.336ZM288.212 676.576C285.076 676.576 282.596 675.456 280.772 673.216C278.948 670.944 278.036 667.792 278.036 663.76C278.036 659.728 278.948 656.576 280.772 654.304C282.628 652.032 285.172 650.896 288.404 650.896C292.756 650.896 295.62 652.8 296.996 656.608L293.06 658.048C292.228 655.872 290.692 654.784 288.452 654.784C286.404 654.784 284.868 655.568 283.844 657.136C282.82 658.704 282.308 660.912 282.308 663.76C282.308 666.576 282.82 668.768 283.844 670.336C284.868 671.872 286.356 672.64 288.308 672.64C290.868 672.64 292.532 671.424 293.3 668.992L297.188 670.288C296.58 672.304 295.492 673.856 293.924 674.944C292.388 676.032 290.484 676.576 288.212 676.576ZM307.46 646.288C306.948 646.768 306.324 647.008 305.588 647.008C304.852 647.008 304.228 646.752 303.716 646.24C303.236 645.728 302.996 645.12 302.996 644.416C302.996 643.68 303.252 643.056 303.764 642.544C304.276 642 304.884 641.728 305.588 641.728C306.324 641.728 306.948 642 307.46 642.544C307.972 643.056 308.228 643.68 308.228 644.416C308.228 645.152 307.972 645.776 307.46 646.288ZM303.524 676V651.472H307.7V676H303.524ZM329.728 676V673.744C327.712 675.632 325.392 676.576 322.768 676.576C320.176 676.576 318.096 675.872 316.528 674.464C314.992 673.024 314.224 670.976 314.224 668.32C314.224 665.664 315.104 663.648 316.864 662.272C318.624 660.896 320.8 660.208 323.392 660.208C325.76 660.208 327.872 660.736 329.728 661.792V660.064C329.728 658.016 329.264 656.592 328.336 655.792C327.44 654.96 326.128 654.544 324.4 654.544C321.936 654.544 319.552 655.36 317.248 656.992L316.048 653.488C318.672 651.76 321.632 650.896 324.928 650.896C330.752 650.896 333.664 653.84 333.664 659.728V676H329.728ZM323.392 672.88C325.792 672.88 327.904 671.808 329.728 669.664V665.44C327.968 664.352 326.048 663.808 323.968 663.808C322.272 663.808 320.88 664.192 319.792 664.96C318.704 665.728 318.16 666.848 318.16 668.32C318.16 669.696 318.608 670.8 319.504 671.632C320.432 672.464 321.728 672.88 323.392 672.88ZM341.169 676V643.312L345.345 641.344V676H341.169ZM373.477 676.576C370.373 676.576 367.909 675.424 366.085 673.12C364.261 670.816 363.349 667.68 363.349 663.712C363.349 659.712 364.261 656.576 366.085 654.304C367.941 652.032 370.405 650.896 373.477 650.896C375.877 650.896 377.941 651.664 379.669 653.2V643.312L383.845 641.344V676H379.669V674.08C378.069 675.744 376.005 676.576 373.477 676.576ZM374.053 672.688C376.485 672.688 378.357 671.584 379.669 669.376V657.856C378.357 655.776 376.485 654.736 374.053 654.736C371.973 654.736 370.373 655.52 369.253 657.088C368.133 658.624 367.573 660.832 367.573 663.712C367.573 666.304 368.149 668.448 369.301 670.144C370.485 671.84 372.069 672.688 374.053 672.688ZM401.198 676.576C397.87 676.576 395.214 675.392 393.23 673.024C391.278 670.624 390.302 667.52 390.302 663.712C390.302 659.712 391.294 656.576 393.278 654.304C395.262 652.032 397.902 650.896 401.198 650.896C404.142 650.896 406.558 651.888 408.446 653.872C410.366 655.824 411.326 658.72 411.326 662.56C411.326 663.456 411.278 664.384 411.182 665.344H394.574C394.734 667.584 395.422 669.392 396.638 670.768C397.886 672.112 399.438 672.784 401.294 672.784C403.342 672.784 405.102 672.048 406.574 670.576L409.118 673.408C407.006 675.52 404.366 676.576 401.198 676.576ZM394.526 661.792H407.102C407.07 659.264 406.462 657.44 405.278 656.32C404.126 655.168 402.766 654.592 401.198 654.592C399.31 654.592 397.758 655.2 396.542 656.416C395.326 657.6 394.654 659.392 394.526 661.792ZM439.379 676.576C436.531 676.576 434.051 675.888 431.939 674.512C429.859 673.104 428.435 671.296 427.667 669.088L431.603 667.648C432.307 669.184 433.347 670.4 434.723 671.296C436.099 672.192 437.683 672.64 439.475 672.64C441.523 672.64 443.139 672.16 444.323 671.2C445.507 670.208 446.099 668.8 446.099 666.976C446.099 665.216 445.427 663.808 444.083 662.752C442.771 661.696 440.915 660.736 438.515 659.872C437.363 659.456 436.403 659.088 435.635 658.768C434.899 658.448 434.035 658 433.043 657.424C432.083 656.816 431.315 656.208 430.739 655.6C430.163 654.96 429.667 654.176 429.251 653.248C428.867 652.288 428.675 651.248 428.675 650.128C428.675 647.792 429.603 645.824 431.459 644.224C433.315 642.624 435.827 641.824 438.995 641.824C441.587 641.824 443.747 642.384 445.475 643.504C447.203 644.592 448.323 646.032 448.835 647.824L444.995 649.12C444.547 648.128 443.779 647.312 442.691 646.672C441.603 646.032 440.275 645.712 438.707 645.712C436.947 645.712 435.555 646.112 434.531 646.912C433.507 647.68 432.995 648.752 432.995 650.128C432.995 650.864 433.171 651.536 433.523 652.144C433.907 652.752 434.483 653.296 435.251 653.776C436.051 654.256 436.787 654.64 437.459 654.928C438.131 655.216 439.059 655.584 440.243 656.032C441.715 656.576 442.931 657.104 443.891 657.616C444.851 658.096 445.891 658.752 447.011 659.584C448.131 660.416 448.979 661.456 449.555 662.704C450.131 663.92 450.419 665.312 450.419 666.88C450.419 669.888 449.395 672.256 447.347 673.984C445.299 675.712 442.643 676.576 439.379 676.576ZM467.057 676.576C463.729 676.576 461.073 675.392 459.089 673.024C457.137 670.624 456.161 667.52 456.161 663.712C456.161 659.712 457.153 656.576 459.137 654.304C461.121 652.032 463.761 650.896 467.057 650.896C470.001 650.896 472.417 651.888 474.305 653.872C476.225 655.824 477.185 658.72 477.185 662.56C477.185 663.456 477.137 664.384 477.041 665.344H460.433C460.593 667.584 461.281 669.392 462.497 670.768C463.745 672.112 465.297 672.784 467.153 672.784C469.201 672.784 470.961 672.048 472.433 670.576L474.977 673.408C472.865 675.52 470.225 676.576 467.057 676.576ZM460.385 661.792H472.961C472.929 659.264 472.321 657.44 471.137 656.32C469.985 655.168 468.625 654.592 467.057 654.592C465.169 654.592 463.617 655.2 462.401 656.416C461.185 657.6 460.513 659.392 460.385 661.792ZM492.165 676.576C489.029 676.576 486.549 675.456 484.725 673.216C482.901 670.944 481.989 667.792 481.989 663.76C481.989 659.728 482.901 656.576 484.725 654.304C486.581 652.032 489.125 650.896 492.357 650.896C496.709 650.896 499.573 652.8 500.949 656.608L497.013 658.048C496.181 655.872 494.645 654.784 492.405 654.784C490.357 654.784 488.821 655.568 487.797 657.136C486.773 658.704 486.261 660.912 486.261 663.76C486.261 666.576 486.773 668.768 487.797 670.336C488.821 671.872 490.309 672.64 492.261 672.64C494.821 672.64 496.485 671.424 497.253 668.992L501.141 670.288C500.533 672.304 499.445 673.856 497.877 674.944C496.341 676.032 494.437 676.576 492.165 676.576ZM521.025 676V673.744C519.009 675.632 516.689 676.576 514.065 676.576C511.473 676.576 509.393 675.872 507.825 674.464C506.289 673.024 505.521 670.976 505.521 668.32C505.521 665.664 506.401 663.648 508.161 662.272C509.921 660.896 512.097 660.208 514.689 660.208C517.057 660.208 519.169 660.736 521.025 661.792V660.064C521.025 658.016 520.561 656.592 519.633 655.792C518.737 654.96 517.425 654.544 515.697 654.544C513.233 654.544 510.849 655.36 508.545 656.992L507.345 653.488C509.969 651.76 512.929 650.896 516.225 650.896C522.049 650.896 524.961 653.84 524.961 659.728V676H521.025ZM514.689 672.88C517.089 672.88 519.201 671.808 521.025 669.664V665.44C519.265 664.352 517.345 663.808 515.265 663.808C513.569 663.808 512.177 664.192 511.089 664.96C510.001 665.728 509.457 666.848 509.457 668.32C509.457 669.696 509.905 670.8 510.801 671.632C511.729 672.464 513.025 672.88 514.689 672.88ZM539.474 676.576C537.714 676.576 536.034 676.208 534.434 675.472C532.866 674.704 531.586 673.696 530.594 672.448L533.57 669.904C535.394 671.856 537.394 672.832 539.57 672.832C540.946 672.832 542.05 672.576 542.882 672.064C543.714 671.52 544.13 670.736 544.13 669.712C544.13 668.944 543.826 668.256 543.218 667.648C542.61 667.008 541.986 666.544 541.346 666.256C540.706 665.936 539.762 665.536 538.514 665.056C536.018 664.128 534.13 663.088 532.85 661.936C531.57 660.784 530.93 659.264 530.93 657.376C530.93 655.392 531.698 653.824 533.234 652.672C534.802 651.488 536.786 650.896 539.186 650.896C542.61 650.896 545.362 652.128 547.442 654.592L544.562 656.992C543.058 655.424 541.25 654.64 539.138 654.64C537.89 654.64 536.898 654.88 536.162 655.36C535.426 655.84 535.058 656.512 535.058 657.376C535.058 657.856 535.17 658.304 535.394 658.72C535.65 659.104 536.082 659.472 536.69 659.824C537.33 660.176 537.826 660.448 538.178 660.64C538.562 660.8 539.25 661.072 540.242 661.456C542.834 662.384 544.802 663.44 546.146 664.624C547.522 665.808 548.21 667.472 548.21 669.616C548.21 671.792 547.426 673.504 545.858 674.752C544.29 675.968 542.162 676.576 539.474 676.576Z" fill="#D14D23"/>
<defs>
<linearGradient id="paint0_linear" x1="282.25" y1="2" x2="282.25" y2="450" gradientUnits="userSpaceOnUse">
<stop stop-color="#C85530"/>
<stop offset="1" stop-color="#D97E21"/>
</linearGradient>
</defs>
</svg>
